<mxfile host="app.diagrams.net" modified="2022-03-08T11:24:21.932Z" agent="5.0 (Macintosh)" etag="ntj9NtAHtsCu3OMja_hM" version="16.6.2" type="github">
  <diagram id="kgpKYQtTHZ0yAKxKKP6v" name="Page-1">
    <mxGraphModel dx="2004" dy="2156" grid="1" gridSize="10" guides="1" tooltips="1" connect="1" arrows="1" fold="1" page="1" pageScale="1" pageWidth="850" pageHeight="1100" math="0" shadow="0">
      <root>
        <mxCell id="0" />
        <mxCell id="1" parent="0" />
        <mxCell id="fLQa5CgqU-qq7ocHvfI6-15" style="edgeStyle=orthogonalEdgeStyle;rounded=0;orthogonalLoop=1;jettySize=auto;html=1;fontSize=10;" edge="1" parent="1" source="3nuBFxr9cyL0pnOWT2aG-1" target="fLQa5CgqU-qq7ocHvfI6-2">
          <mxGeometry relative="1" as="geometry">
            <Array as="points">
              <mxPoint x="360" y="240" />
              <mxPoint x="360" y="240" />
            </Array>
          </mxGeometry>
        </mxCell>
        <mxCell id="fLQa5CgqU-qq7ocHvfI6-16" value="wip - Mereta" style="edgeLabel;html=1;align=center;verticalAlign=middle;resizable=0;points=[];fontSize=10;" vertex="1" connectable="0" parent="fLQa5CgqU-qq7ocHvfI6-15">
          <mxGeometry x="0.5339" relative="1" as="geometry">
            <mxPoint as="offset" />
          </mxGeometry>
        </mxCell>
        <mxCell id="fLQa5CgqU-qq7ocHvfI6-18" style="edgeStyle=orthogonalEdgeStyle;rounded=0;orthogonalLoop=1;jettySize=auto;html=1;fontSize=10;entryX=0.499;entryY=0.82;entryDx=0;entryDy=0;entryPerimeter=0;" edge="1" parent="1" source="3nuBFxr9cyL0pnOWT2aG-1" target="fLQa5CgqU-qq7ocHvfI6-10">
          <mxGeometry relative="1" as="geometry">
            <mxPoint x="1970" y="400" as="targetPoint" />
            <Array as="points">
              <mxPoint x="170" y="420" />
              <mxPoint x="2110" y="420" />
            </Array>
          </mxGeometry>
        </mxCell>
        <mxCell id="fLQa5CgqU-qq7ocHvfI6-19" value="not started - Sebastian" style="edgeLabel;html=1;align=center;verticalAlign=middle;resizable=0;points=[];fontSize=10;" vertex="1" connectable="0" parent="fLQa5CgqU-qq7ocHvfI6-18">
          <mxGeometry x="0.6722" relative="1" as="geometry">
            <mxPoint x="241" as="offset" />
          </mxGeometry>
        </mxCell>
        <mxCell id="fLQa5CgqU-qq7ocHvfI6-21" style="edgeStyle=orthogonalEdgeStyle;rounded=0;orthogonalLoop=1;jettySize=auto;html=1;fontSize=10;" edge="1" parent="1" source="3nuBFxr9cyL0pnOWT2aG-1" target="fLQa5CgqU-qq7ocHvfI6-20">
          <mxGeometry relative="1" as="geometry">
            <Array as="points">
              <mxPoint x="560" y="260" />
              <mxPoint x="560" y="260" />
            </Array>
          </mxGeometry>
        </mxCell>
        <mxCell id="fLQa5CgqU-qq7ocHvfI6-22" value="Sebastian + Piotr" style="edgeLabel;html=1;align=center;verticalAlign=middle;resizable=0;points=[];fontSize=10;" vertex="1" connectable="0" parent="fLQa5CgqU-qq7ocHvfI6-21">
          <mxGeometry x="0.6519" relative="1" as="geometry">
            <mxPoint as="offset" />
          </mxGeometry>
        </mxCell>
        <mxCell id="fLQa5CgqU-qq7ocHvfI6-33" style="edgeStyle=orthogonalEdgeStyle;rounded=0;orthogonalLoop=1;jettySize=auto;html=1;fontSize=6;" edge="1" parent="1" source="3nuBFxr9cyL0pnOWT2aG-1" target="fLQa5CgqU-qq7ocHvfI6-32">
          <mxGeometry relative="1" as="geometry">
            <Array as="points">
              <mxPoint x="1050" y="340" />
              <mxPoint x="1050" y="340" />
            </Array>
          </mxGeometry>
        </mxCell>
        <mxCell id="fLQa5CgqU-qq7ocHvfI6-34" value="Piotr + will need help" style="edgeLabel;html=1;align=center;verticalAlign=middle;resizable=0;points=[];fontSize=6;" vertex="1" connectable="0" parent="fLQa5CgqU-qq7ocHvfI6-33">
          <mxGeometry x="0.814" relative="1" as="geometry">
            <mxPoint as="offset" />
          </mxGeometry>
        </mxCell>
        <mxCell id="3nuBFxr9cyL0pnOWT2aG-1" value="smoke tests poc" style="shape=umlLifeline;perimeter=lifelinePerimeter;container=1;collapsible=0;recursiveResize=0;rounded=0;shadow=0;strokeWidth=1;" parent="1" vertex="1">
          <mxGeometry x="120" y="80" width="100" height="300" as="geometry" />
        </mxCell>
        <mxCell id="3nuBFxr9cyL0pnOWT2aG-3" value="" style="verticalAlign=bottom;startArrow=oval;endArrow=block;startSize=8;shadow=0;strokeWidth=1;entryX=0.508;entryY=0.232;entryDx=0;entryDy=0;entryPerimeter=0;" parent="3nuBFxr9cyL0pnOWT2aG-1" target="3nuBFxr9cyL0pnOWT2aG-1" edge="1">
          <mxGeometry relative="1" as="geometry">
            <mxPoint x="-15" y="70" as="sourcePoint" />
            <mxPoint x="45" y="70" as="targetPoint" />
          </mxGeometry>
        </mxCell>
        <mxCell id="3nuBFxr9cyL0pnOWT2aG-5" value="ci for&#xa;github actions" style="shape=umlLifeline;perimeter=lifelinePerimeter;container=1;collapsible=0;recursiveResize=0;rounded=0;shadow=0;strokeWidth=1;" parent="1" vertex="1">
          <mxGeometry x="240" y="80" width="100" height="300" as="geometry" />
        </mxCell>
        <mxCell id="fLQa5CgqU-qq7ocHvfI6-5" value="" style="endArrow=classic;html=1;rounded=0;entryX=0.499;entryY=0.464;entryDx=0;entryDy=0;entryPerimeter=0;" edge="1" parent="3nuBFxr9cyL0pnOWT2aG-5" target="fLQa5CgqU-qq7ocHvfI6-1">
          <mxGeometry width="50" height="50" relative="1" as="geometry">
            <mxPoint x="-69.99746031746048" y="140" as="sourcePoint" />
            <mxPoint x="49.81999999999999" y="140" as="targetPoint" />
          </mxGeometry>
        </mxCell>
        <mxCell id="fLQa5CgqU-qq7ocHvfI6-13" value="wip - Robert" style="edgeLabel;html=1;align=center;verticalAlign=middle;resizable=0;points=[];fontSize=10;" vertex="1" connectable="0" parent="fLQa5CgqU-qq7ocHvfI6-5">
          <mxGeometry x="0.1265" y="1" relative="1" as="geometry">
            <mxPoint as="offset" />
          </mxGeometry>
        </mxCell>
        <mxCell id="fLQa5CgqU-qq7ocHvfI6-1" value="smoke tests in&#xa;production" style="shape=umlLifeline;perimeter=lifelinePerimeter;container=1;collapsible=0;recursiveResize=0;rounded=0;shadow=0;strokeWidth=1;" vertex="1" parent="1">
          <mxGeometry x="360" y="80" width="100" height="300" as="geometry" />
        </mxCell>
        <mxCell id="fLQa5CgqU-qq7ocHvfI6-2" value="integration tests&#xa;with palladium" style="shape=umlLifeline;perimeter=lifelinePerimeter;container=1;collapsible=0;recursiveResize=0;rounded=0;shadow=0;strokeWidth=1;" vertex="1" parent="1">
          <mxGeometry x="480" y="80" width="100" height="300" as="geometry" />
        </mxCell>
        <mxCell id="fLQa5CgqU-qq7ocHvfI6-4" value="" style="endArrow=classic;html=1;rounded=0;" edge="1" parent="1" source="3nuBFxr9cyL0pnOWT2aG-1">
          <mxGeometry width="50" height="50" relative="1" as="geometry">
            <mxPoint x="400" y="230" as="sourcePoint" />
            <mxPoint x="290" y="180" as="targetPoint" />
          </mxGeometry>
        </mxCell>
        <mxCell id="fLQa5CgqU-qq7ocHvfI6-14" value="&lt;div&gt;wip&lt;/div&gt;&amp;nbsp;- Sebastian" style="edgeLabel;html=1;align=center;verticalAlign=middle;resizable=0;points=[];fontSize=10;" vertex="1" connectable="0" parent="fLQa5CgqU-qq7ocHvfI6-4">
          <mxGeometry x="-0.4061" relative="1" as="geometry">
            <mxPoint as="offset" />
          </mxGeometry>
        </mxCell>
        <mxCell id="fLQa5CgqU-qq7ocHvfI6-9" value="&lt;p style=&quot;line-height: 1&quot;&gt;&lt;font style=&quot;font-size: 6px&quot;&gt;Marijana + Bogdan + Luke + Chris already have a prototype of ci + cd + cr creation (whois lambda) 1. no service accounts 2. roles instead&lt;br&gt;&lt;/font&gt;&lt;/p&gt;" style="text;html=1;strokeColor=none;fillColor=none;align=center;verticalAlign=middle;whiteSpace=wrap;rounded=0;" vertex="1" parent="1">
          <mxGeometry x="235" width="110" height="70" as="geometry" />
        </mxCell>
        <mxCell id="fLQa5CgqU-qq7ocHvfI6-10" value="github actions&#xa;template for any&#xa;type of lambda" style="shape=umlLifeline;perimeter=lifelinePerimeter;container=1;collapsible=0;recursiveResize=0;rounded=0;shadow=0;strokeWidth=1;fontSize=10;" vertex="1" parent="1">
          <mxGeometry x="2040" y="80" width="140" height="390" as="geometry" />
        </mxCell>
        <mxCell id="fLQa5CgqU-qq7ocHvfI6-24" style="edgeStyle=orthogonalEdgeStyle;rounded=0;orthogonalLoop=1;jettySize=auto;html=1;fontSize=6;" edge="1" parent="1" source="fLQa5CgqU-qq7ocHvfI6-20" target="fLQa5CgqU-qq7ocHvfI6-23">
          <mxGeometry relative="1" as="geometry">
            <Array as="points">
              <mxPoint x="750" y="280" />
              <mxPoint x="750" y="280" />
            </Array>
          </mxGeometry>
        </mxCell>
        <mxCell id="fLQa5CgqU-qq7ocHvfI6-25" value="Sebastian + Piotr" style="edgeLabel;html=1;align=center;verticalAlign=middle;resizable=0;points=[];fontSize=6;" vertex="1" connectable="0" parent="fLQa5CgqU-qq7ocHvfI6-24">
          <mxGeometry x="-0.3142" y="-1" relative="1" as="geometry">
            <mxPoint as="offset" />
          </mxGeometry>
        </mxCell>
        <mxCell id="fLQa5CgqU-qq7ocHvfI6-20" value="DEV: Emailage Data with&#xa;EKS + argocd&#xa;ASAP, ideally end of Q1&#xa;" style="shape=umlLifeline;perimeter=lifelinePerimeter;container=1;collapsible=0;recursiveResize=0;rounded=0;shadow=0;strokeWidth=1;fontSize=8;" vertex="1" parent="1">
          <mxGeometry x="600" y="80" width="140" height="300" as="geometry" />
        </mxCell>
        <mxCell id="fLQa5CgqU-qq7ocHvfI6-28" style="edgeStyle=orthogonalEdgeStyle;rounded=0;orthogonalLoop=1;jettySize=auto;html=1;fontSize=6;" edge="1" parent="1" source="fLQa5CgqU-qq7ocHvfI6-23" target="fLQa5CgqU-qq7ocHvfI6-26">
          <mxGeometry relative="1" as="geometry">
            <Array as="points">
              <mxPoint x="910" y="300" />
              <mxPoint x="910" y="300" />
            </Array>
          </mxGeometry>
        </mxCell>
        <mxCell id="fLQa5CgqU-qq7ocHvfI6-29" value="Sebastian + Piotr" style="edgeLabel;html=1;align=center;verticalAlign=middle;resizable=0;points=[];fontSize=6;" vertex="1" connectable="0" parent="fLQa5CgqU-qq7ocHvfI6-28">
          <mxGeometry x="0.0723" y="-1" relative="1" as="geometry">
            <mxPoint as="offset" />
          </mxGeometry>
        </mxCell>
        <mxCell id="fLQa5CgqU-qq7ocHvfI6-23" value="PROD + SANDBOX:&#xa;Emailage Data with&#xa;EKS + argocd&#xa;ASAP, ideally end of Q1&#xa;" style="shape=umlLifeline;perimeter=lifelinePerimeter;container=1;collapsible=0;recursiveResize=0;rounded=0;shadow=0;strokeWidth=1;fontSize=6;" vertex="1" parent="1">
          <mxGeometry x="760" y="80" width="140" height="390" as="geometry" />
        </mxCell>
        <mxCell id="fLQa5CgqU-qq7ocHvfI6-41" style="edgeStyle=orthogonalEdgeStyle;rounded=0;orthogonalLoop=1;jettySize=auto;html=1;fontSize=6;" edge="1" parent="fLQa5CgqU-qq7ocHvfI6-23" target="fLQa5CgqU-qq7ocHvfI6-36">
          <mxGeometry relative="1" as="geometry">
            <mxPoint x="-579.7474603174605" y="299.685873015873" as="sourcePoint" />
            <mxPoint x="719.75" y="299.705873015873" as="targetPoint" />
            <Array as="points">
              <mxPoint x="-550" y="300" />
              <mxPoint x="-550" y="300" />
            </Array>
          </mxGeometry>
        </mxCell>
        <mxCell id="fLQa5CgqU-qq7ocHvfI6-42" value="Piotr + will need help" style="edgeLabel;html=1;align=center;verticalAlign=middle;resizable=0;points=[];fontSize=6;" vertex="1" connectable="0" parent="fLQa5CgqU-qq7ocHvfI6-41">
          <mxGeometry x="0.814" relative="1" as="geometry">
            <mxPoint x="65" as="offset" />
          </mxGeometry>
        </mxCell>
        <mxCell id="fLQa5CgqU-qq7ocHvfI6-30" style="edgeStyle=orthogonalEdgeStyle;rounded=0;orthogonalLoop=1;jettySize=auto;html=1;fontSize=6;" edge="1" parent="1" source="fLQa5CgqU-qq7ocHvfI6-26" target="fLQa5CgqU-qq7ocHvfI6-27">
          <mxGeometry relative="1" as="geometry">
            <Array as="points">
              <mxPoint x="1070" y="320" />
              <mxPoint x="1070" y="320" />
            </Array>
          </mxGeometry>
        </mxCell>
        <mxCell id="fLQa5CgqU-qq7ocHvfI6-31" value="Sebastian + Piotr" style="edgeLabel;html=1;align=center;verticalAlign=middle;resizable=0;points=[];fontSize=6;" vertex="1" connectable="0" parent="fLQa5CgqU-qq7ocHvfI6-30">
          <mxGeometry x="-0.0911" y="2" relative="1" as="geometry">
            <mxPoint as="offset" />
          </mxGeometry>
        </mxCell>
        <mxCell id="fLQa5CgqU-qq7ocHvfI6-26" value="DEV: ERS Pure + ERS with&#xa;EKS + argocd&#xa;mid Q3&#xa;" style="shape=umlLifeline;perimeter=lifelinePerimeter;container=1;collapsible=0;recursiveResize=0;rounded=0;shadow=0;strokeWidth=1;fontSize=8;" vertex="1" parent="1">
          <mxGeometry x="920" y="80" width="140" height="400" as="geometry" />
        </mxCell>
        <mxCell id="fLQa5CgqU-qq7ocHvfI6-27" value="PROD + SANDBOX:&#xa;ERS Pure + ERS withEKS + argocd&#xa;late Q3&#xa;" style="shape=umlLifeline;perimeter=lifelinePerimeter;container=1;collapsible=0;recursiveResize=0;rounded=0;shadow=0;strokeWidth=1;fontSize=8;" vertex="1" parent="1">
          <mxGeometry x="1080" y="80" width="140" height="400" as="geometry" />
        </mxCell>
        <mxCell id="fLQa5CgqU-qq7ocHvfI6-32" value="ERS ES: regular break tests&#xa;for individual containers&#xa;+ monitoring + observability&#xa;" style="shape=umlLifeline;perimeter=lifelinePerimeter;container=1;collapsible=0;recursiveResize=0;rounded=0;shadow=0;strokeWidth=1;fontSize=8;" vertex="1" parent="1">
          <mxGeometry x="1240" y="80" width="140" height="400" as="geometry" />
        </mxCell>
        <mxCell id="fLQa5CgqU-qq7ocHvfI6-39" style="edgeStyle=orthogonalEdgeStyle;rounded=0;orthogonalLoop=1;jettySize=auto;html=1;fontSize=6;" edge="1" parent="fLQa5CgqU-qq7ocHvfI6-32" target="fLQa5CgqU-qq7ocHvfI6-35">
          <mxGeometry relative="1" as="geometry">
            <mxPoint x="-1069.9974603174605" y="279.99587301587303" as="sourcePoint" />
            <mxPoint x="69.31999999999994" y="279.99587301587303" as="targetPoint" />
            <Array as="points">
              <mxPoint x="-110" y="280" />
              <mxPoint x="-110" y="280" />
            </Array>
          </mxGeometry>
        </mxCell>
        <mxCell id="fLQa5CgqU-qq7ocHvfI6-40" value="Piotr + will need help" style="edgeLabel;html=1;align=center;verticalAlign=middle;resizable=0;points=[];fontSize=6;" vertex="1" connectable="0" parent="fLQa5CgqU-qq7ocHvfI6-39">
          <mxGeometry x="0.814" relative="1" as="geometry">
            <mxPoint as="offset" />
          </mxGeometry>
        </mxCell>
        <mxCell id="fLQa5CgqU-qq7ocHvfI6-35" value="ERS ES: regular load tests revised&#xa;+ monitoring + observability + cost&#xa;" style="shape=umlLifeline;perimeter=lifelinePerimeter;container=1;collapsible=0;recursiveResize=0;rounded=0;shadow=0;strokeWidth=1;fontSize=8;" vertex="1" parent="1">
          <mxGeometry x="1400" y="80" width="140" height="400" as="geometry" />
        </mxCell>
        <mxCell id="fLQa5CgqU-qq7ocHvfI6-36" value="ERS ES: regular performance/benchmark tests&#xa;+ monitoring + observability + cost&#xa;" style="shape=umlLifeline;perimeter=lifelinePerimeter;container=1;collapsible=0;recursiveResize=0;rounded=0;shadow=0;strokeWidth=1;fontSize=6;" vertex="1" parent="1">
          <mxGeometry x="1560" y="80" width="140" height="400" as="geometry" />
        </mxCell>
        <mxCell id="fLQa5CgqU-qq7ocHvfI6-37" value="ERS ES: rate limiting per container&#xa;" style="shape=umlLifeline;perimeter=lifelinePerimeter;container=1;collapsible=0;recursiveResize=0;rounded=0;shadow=0;strokeWidth=1;fontSize=6;" vertex="1" parent="1">
          <mxGeometry x="1880" y="80" width="140" height="400" as="geometry" />
        </mxCell>
        <mxCell id="fLQa5CgqU-qq7ocHvfI6-38" value="ERS ES: regular scale speed testing&#xa;" style="shape=umlLifeline;perimeter=lifelinePerimeter;container=1;collapsible=0;recursiveResize=0;rounded=0;shadow=0;strokeWidth=1;fontSize=6;" vertex="1" parent="1">
          <mxGeometry x="1720" y="80" width="140" height="400" as="geometry" />
        </mxCell>
        <mxCell id="fLQa5CgqU-qq7ocHvfI6-43" style="edgeStyle=orthogonalEdgeStyle;rounded=0;orthogonalLoop=1;jettySize=auto;html=1;fontSize=6;" edge="1" parent="1" target="fLQa5CgqU-qq7ocHvfI6-38">
          <mxGeometry relative="1" as="geometry">
            <mxPoint x="170.00253968253946" y="389.6858730158731" as="sourcePoint" />
            <mxPoint x="1619.25" y="389.69841269841277" as="targetPoint" />
            <Array as="points">
              <mxPoint x="170" y="400" />
            </Array>
          </mxGeometry>
        </mxCell>
        <mxCell id="fLQa5CgqU-qq7ocHvfI6-44" value="Piotr + will need help" style="edgeLabel;html=1;align=center;verticalAlign=middle;resizable=0;points=[];fontSize=6;" vertex="1" connectable="0" parent="fLQa5CgqU-qq7ocHvfI6-43">
          <mxGeometry x="0.814" relative="1" as="geometry">
            <mxPoint x="65" as="offset" />
          </mxGeometry>
        </mxCell>
        <mxCell id="fLQa5CgqU-qq7ocHvfI6-45" value="&lt;div&gt;github&lt;/div&gt;&lt;div&gt;orleans real time&lt;/div&gt;&lt;div&gt;whois&lt;br&gt;&lt;/div&gt;" style="text;html=1;strokeColor=none;fillColor=none;align=center;verticalAlign=middle;whiteSpace=wrap;rounded=0;" vertex="1" parent="1">
          <mxGeometry x="610" y="500" width="110" height="70" as="geometry" />
        </mxCell>
      </root>
    </mxGraphModel>
  </diagram>
</mxfile>
